<?xml version="1.0" standalone="no"?>
<!DOCTYPE svg PUBLIC "-//W3C//DTD SVG 1.1//EN"
  "http://www.w3.org/Graphics/SVG/1.1/DTD/svg11.dtd">
<svg baseProfile="full" height="100%" version="1.1" width="100%" xmlns="http://www.w3.org/2000/svg" xmlns:ev="http://www.w3.org/2001/xml-events" xmlns:xlink="http://www.w3.org/1999/xlink"><defs><marker fill="black" id="id1" markerHeight="10" markerUnits="strokeWidth" markerWidth="8" orient="auto" overflow="visible" refX="0" refY="5" stroke="none" viewBox="0 0 10 5"><path d="M 0 0 L 10 5 L 0 10 z" /></marker><marker fill="black" id="id2" markerHeight="10" markerUnits="strokeWidth" markerWidth="8" orient="auto" overflow="visible" refX="0" refY="5" stroke="none" viewBox="0 0 10 5"><path d="M 0 0 L 10 5 L 0 10 z" /></marker><marker fill="black" id="id3" markerHeight="10" markerUnits="strokeWidth" markerWidth="8" orient="auto" overflow="visible" refX="0" refY="5" stroke="none" viewBox="0 0 10 5"><path d="M 0 0 L 10 5 L 0 10 z" /></marker><marker fill="black" id="id4" markerHeight="10" markerUnits="strokeWidth" markerWidth="8" orient="auto" overflow="visible" refX="0" refY="5" stroke="none" viewBox="0 0 10 5"><path d="M 0 0 L 10 5 L 0 10 z" /></marker></defs><rect fill="#EBD9B2" height="30" stroke="#000000" width="107.25" x="5" y="10" /><rect fill="#ffffff" height="20" stroke="rgb(0,0,0)" width="107.25" x="5" y="40" /><rect fill="#EBD9B2" height="30" stroke="#000000" width="107.25" x="5" y="130" /><rect fill="#ffffff" height="20" stroke="rgb(0,0,0)" width="107.25" x="5" y="160" /><rect fill="#EBD9B2" height="30" stroke="#000000" width="115.5" x="225" y="10" /><rect fill="#ffffff" height="50" stroke="rgb(0,0,0)" width="115.5" x="225" y="40" /><rect fill="#EBD9B2" height="30" stroke="#000000" width="115.5" x="225" y="130" /><rect fill="#ffffff" height="50" stroke="rgb(0,0,0)" width="115.5" x="225" y="160" /><rect fill="#EBD9B2" height="30" stroke="#000000" width="115.5" x="225" y="250" /><rect fill="#ffffff" height="65" stroke="rgb(0,0,0)" width="115.5" x="225" y="280" /><line marker-end="url(#id1)" stroke="#000000" x1="117.25" x2="220" y1="50" y2="55" /><line marker-end="url(#id2)" stroke="#000000" x1="117.25" x2="220" y1="50" y2="175" /><line marker-end="url(#id3)" stroke="#000000" x1="117.25" x2="220" y1="50" y2="295" /><line marker-end="url(#id4)" stroke="#000000" x1="117.25" x2="220" y1="170" y2="310" /><g style="font-family: Helvetica, Arial, FreeSans, Sans, sans, sans-serif;"><text style="font-size:14px" x="10" y="30">Input dataset</text><text style="font-size:10px" x="10" y="55">output</text><text style="font-size:14px" x="10" y="150">Input dataset</text><text style="font-size:10px" x="10" y="175">output</text><text style="font-size:14px" x="230" y="30">Volcano Plot</text><text style="font-size:10px" x="230" y="55">Specify an input file</text><text style="font-size:10px" x="230" y="85">plot</text><text style="font-size:14px" x="230" y="150">Volcano Plot</text><text style="font-size:10px" x="230" y="175">Specify an input file</text><text style="font-size:10px" x="230" y="205">plot</text><text style="font-size:14px" x="230" y="270">Volcano Plot</text><text style="font-size:10px" x="230" y="295">Specify an input file</text><text style="font-size:10px" x="230" y="310">File of labels</text><text style="font-size:10px" x="230" y="340">plot</text><line stroke="rgb(0,0,0)" x1="225" x2="340.5" y1="65" y2="65" /><circle cx="112.25" cy="50" fill="#ffffff" r="5" stroke="#000000" /><line stroke="rgb(0,0,0)" x1="225" x2="340.5" y1="185" y2="185" /><circle cx="112.25" cy="50" fill="#ffffff" r="5" stroke="#000000" /><line stroke="rgb(0,0,0)" x1="225" x2="340.5" y1="320" y2="320" /><circle cx="112.25" cy="50" fill="#ffffff" r="5" stroke="#000000" /><circle cx="112.25" cy="170" fill="#ffffff" r="5" stroke="#000000" /></g></svg>