<?xml version="1.0" standalone="no"?>
<!DOCTYPE svg PUBLIC "-//W3C//DTD SVG 1.1//EN"
  "http://www.w3.org/Graphics/SVG/1.1/DTD/svg11.dtd">
<svg baseProfile="full" height="100%" version="1.1" width="100%" xmlns="http://www.w3.org/2000/svg" xmlns:ev="http://www.w3.org/2001/xml-events" xmlns:xlink="http://www.w3.org/1999/xlink"><defs><marker fill="black" id="id17" markerHeight="10" markerUnits="strokeWidth" markerWidth="8" orient="auto" overflow="visible" refX="0" refY="5" stroke="none" viewBox="0 0 10 5"><path d="M 0 0 L 10 5 L 0 10 z" /></marker><marker fill="black" id="id18" markerHeight="10" markerUnits="strokeWidth" markerWidth="8" orient="auto" overflow="visible" refX="0" refY="5" stroke="none" viewBox="0 0 10 5"><path d="M 0 0 L 10 5 L 0 10 z" /></marker><marker fill="black" id="id19" markerHeight="10" markerUnits="strokeWidth" markerWidth="8" orient="auto" overflow="visible" refX="0" refY="5" stroke="none" viewBox="0 0 10 5"><path d="M 0 0 L 10 5 L 0 10 z" /></marker><marker fill="black" id="id20" markerHeight="10" markerUnits="strokeWidth" markerWidth="8" orient="auto" overflow="visible" refX="0" refY="5" stroke="none" viewBox="0 0 10 5"><path d="M 0 0 L 10 5 L 0 10 z" /></marker><marker fill="black" id="id21" markerHeight="10" markerUnits="strokeWidth" markerWidth="8" orient="auto" overflow="visible" refX="0" refY="5" stroke="none" viewBox="0 0 10 5"><path d="M 0 0 L 10 5 L 0 10 z" /></marker><marker fill="black" id="id22" markerHeight="10" markerUnits="strokeWidth" markerWidth="8" orient="auto" overflow="visible" refX="0" refY="5" stroke="none" viewBox="0 0 10 5"><path d="M 0 0 L 10 5 L 0 10 z" /></marker><marker fill="black" id="id23" markerHeight="10" markerUnits="strokeWidth" markerWidth="8" orient="auto" overflow="visible" refX="0" refY="5" stroke="none" viewBox="0 0 10 5"><path d="M 0 0 L 10 5 L 0 10 z" /></marker><marker fill="black" id="id24" markerHeight="10" markerUnits="strokeWidth" markerWidth="8" orient="auto" overflow="visible" refX="0" refY="5" stroke="none" viewBox="0 0 10 5"><path d="M 0 0 L 10 5 L 0 10 z" /></marker><marker fill="black" id="id25" markerHeight="10" markerUnits="strokeWidth" markerWidth="8" orient="auto" overflow="visible" refX="0" refY="5" stroke="none" viewBox="0 0 10 5"><path d="M 0 0 L 10 5 L 0 10 z" /></marker></defs><rect fill="#EBD9B2" height="30" stroke="#000000" width="107.25" x="-2.947906494140625" y="7.295152748588123" /><rect fill="#ffffff" height="20" stroke="rgb(0,0,0)" width="107.25" x="-2.947906494140625" y="37.29515274858812" /><rect fill="#EBD9B2" height="30" stroke="#000000" width="107.25" x="-2.645843505859375" y="202.6250318029784" /><rect fill="#ffffff" height="20" stroke="rgb(0,0,0)" width="107.25" x="-2.645843505859375" y="232.6250318029784" /><rect fill="#EBD9B2" height="30" stroke="#000000" width="107.25" x="-5.0" y="402.4374694824219" /><rect fill="#ffffff" height="20" stroke="rgb(0,0,0)" width="107.25" x="-5.0" y="432.4374694824219" /><rect fill="#EBD9B2" height="30" stroke="#000000" width="214.5" x="250.42713419596353" y="2.631944740775623" /><rect fill="#ffffff" height="110" stroke="rgb(0,0,0)" width="214.5" x="250.42713419596353" y="32.63194474077562" /><rect fill="#EBD9B2" height="30" stroke="#000000" width="214.5" x="249.70828247070312" y="190.72616705688466" /><rect fill="#ffffff" height="110" stroke="rgb(0,0,0)" width="214.5" x="249.70828247070312" y="220.72616705688466" /><rect fill="#EBD9B2" height="30" stroke="#000000" width="132.0" x="247.23959350585938" y="382.6075744628906" /><rect fill="#ffffff" height="80" stroke="rgb(0,0,0)" width="132.0" x="247.23959350585938" y="412.6075744628906" /><rect fill="#EBD9B2" height="30" stroke="#000000" width="236.5" x="533.6145935058594" y="0.0" /><rect fill="#ffffff" height="65" stroke="rgb(0,0,0)" width="236.5" x="533.6145935058594" y="30.0" /><rect fill="#EBD9B2" height="30" stroke="#000000" width="126.5" x="531.5417175292969" y="156.52084350585938" /><rect fill="#ffffff" height="50" stroke="rgb(0,0,0)" width="126.5" x="531.5417175292969" y="186.52084350585938" /><rect fill="#EBD9B2" height="30" stroke="#000000" width="99.0" x="796.2494441644292" y="151.91668701171875" /><rect fill="#ffffff" height="110" stroke="rgb(0,0,0)" width="99.0" x="796.2494441644292" y="181.91668701171875" /><rect fill="#EBD9B2" height="30" stroke="#000000" width="269.5" x="1035.7273609316408" y="330.04007613476557" /><rect fill="#ffffff" height="95" stroke="rgb(0,0,0)" width="269.5" x="1035.7273609316408" y="360.04007613476557" /><line marker-end="url(#id17)" stroke="#000000" x1="109.30209350585938" x2="245.42713419596353" y1="47.29515274858812" y2="47.63194474077562" /><line marker-end="url(#id18)" stroke="#000000" x1="109.60415649414062" x2="244.70828247070312" y1="242.6250318029784" y2="235.72616705688466" /><line marker-end="url(#id19)" stroke="#000000" x1="109.30209350585938" x2="242.23959350585938" y1="47.29515274858812" y2="427.6075744628906" /><line marker-end="url(#id20)" stroke="#000000" x1="109.60415649414062" x2="242.23959350585938" y1="242.6250318029784" y2="442.6075744628906" /><line marker-end="url(#id21)" stroke="#000000" x1="469.2082824707031" x2="528.6145935058594" y1="320.72616705688466" y2="45.0" /><line marker-end="url(#id22)" stroke="#000000" x1="384.2395935058594" x2="526.5417175292969" y1="467.6075744628906" y2="201.52084350585938" /><line marker-end="url(#id23)" stroke="#000000" x1="663.0417175292969" x2="791.2494441644292" y1="226.52084350585938" y2="196.91668701171875" /><line marker-end="url(#id24)" stroke="#000000" x1="107.25" x2="1030.7273609316408" y1="442.4374694824219" y2="390.04007613476557" /><line marker-end="url(#id25)" stroke="#000000" x1="900.2494441644292" x2="1030.7273609316408" y1="281.91668701171875" y2="375.04007613476557" /><g style="font-family: Helvetica, Arial, FreeSans, Sans, sans, sans-serif;"><text style="font-size:14px" x="2.052093505859375" y="27.295152748588123">Input dataset</text><text style="font-size:10px" x="2.052093505859375" y="52.29515274858812">output</text><text style="font-size:14px" x="2.354156494140625" y="222.6250318029784">Input dataset</text><text style="font-size:10px" x="2.354156494140625" y="247.6250318029784">output</text><text style="font-size:14px" x="0.0" y="422.4374694824219">Input dataset</text><text style="font-size:10px" x="0.0" y="447.4374694824219">output</text><text style="font-size:14px" x="255.42713419596353" y="22.631944740775623">FastQC</text><text style="font-size:10px" x="255.42713419596353" y="47.63194474077562">Raw read data from your current history</text><text style="font-size:10px" x="255.42713419596353" y="62.63194474077562">Contaminant list</text><text style="font-size:10px" x="255.42713419596353" y="77.63194474077562">Adapter list</text><text style="font-size:10px" x="255.42713419596353" y="92.63194474077562">Submodule and Limit specifing file</text><text style="font-size:10px" x="255.42713419596353" y="122.63194474077562">html_file</text><text style="font-size:10px" x="255.42713419596353" y="137.63194474077562">text_file</text><text style="font-size:14px" x="254.70828247070312" y="210.72616705688466">FastQC</text><text style="font-size:10px" x="254.70828247070312" y="235.72616705688466">Raw read data from your current history</text><text style="font-size:10px" x="254.70828247070312" y="250.72616705688466">Contaminant list</text><text style="font-size:10px" x="254.70828247070312" y="265.72616705688466">Adapter list</text><text style="font-size:10px" x="254.70828247070312" y="280.72616705688466">Submodule and Limit specifing file</text><text style="font-size:10px" x="254.70828247070312" y="310.72616705688466">html_file</text><text style="font-size:10px" x="254.70828247070312" y="325.72616705688466">text_file</text><text style="font-size:14px" x="252.23959350585938" y="402.6075744628906">FASTQ interlacer</text><text style="font-size:10px" x="252.23959350585938" y="427.6075744628906">Left-hand mates</text><text style="font-size:10px" x="252.23959350585938" y="442.6075744628906">Right-hand mates</text><text style="font-size:10px" x="252.23959350585938" y="472.6075744628906">outfile_pairs</text><text style="font-size:10px" x="252.23959350585938" y="487.6075744628906">outfile_singles</text><text style="font-size:14px" x="538.6145935058594" y="20.0">MultiQC</text><text style="font-size:10px" x="538.6145935058594" y="45.0">Results 1 &gt; FastQC output 1 &gt; FastQC output</text><text style="font-size:10px" x="538.6145935058594" y="75.0">stats</text><text style="font-size:10px" x="538.6145935058594" y="90.0">html_report</text><text style="font-size:14px" x="536.5417175292969" y="176.52084350585938">velveth</text><text style="font-size:10px" x="536.5417175292969" y="201.52084350585938">Input Files 1 &gt; Dataset</text><text style="font-size:10px" x="536.5417175292969" y="231.52084350585938">outfile</text><text style="font-size:14px" x="801.2494441644292" y="171.91668701171875">velvetg</text><text style="font-size:10px" x="801.2494441644292" y="196.91668701171875">Velvet Dataset</text><text style="font-size:10px" x="801.2494441644292" y="226.91668701171875">LastGraph</text><text style="font-size:10px" x="801.2494441644292" y="241.91668701171875">velvet_asm</text><text style="font-size:10px" x="801.2494441644292" y="256.91668701171875">unused_reads_fasta</text><text style="font-size:10px" x="801.2494441644292" y="271.91668701171875">stats</text><text style="font-size:10px" x="801.2494441644292" y="286.91668701171875">contigs</text><text style="font-size:14px" x="1040.7273609316408" y="350.04007613476557">Quast</text><text style="font-size:10px" x="1040.7273609316408" y="375.04007613476557">Contigs/scaffolds file</text><text style="font-size:10px" x="1040.7273609316408" y="390.04007613476557">Reference genome</text><text style="font-size:10px" x="1040.7273609316408" y="405.04007613476557">Genomic feature positions in the reference genome</text><text style="font-size:10px" x="1040.7273609316408" y="420.04007613476557">Operon positions in the reference genome</text><text style="font-size:10px" x="1040.7273609316408" y="450.04007613476557">report_html</text><line stroke="rgb(0,0,0)" x1="250.42713419596353" x2="464.9271341959635" y1="102.63194474077562" y2="102.63194474077562" /><circle cx="104.30209350585938" cy="47.29515274858812" fill="#ffffff" r="5" stroke="#000000" /><line stroke="rgb(0,0,0)" x1="249.70828247070312" x2="464.2082824707031" y1="290.72616705688466" y2="290.72616705688466" /><circle cx="104.60415649414062" cy="242.6250318029784" fill="#ffffff" r="5" stroke="#000000" /><line stroke="rgb(0,0,0)" x1="247.23959350585938" x2="379.2395935058594" y1="452.6075744628906" y2="452.6075744628906" /><circle cx="104.30209350585938" cy="47.29515274858812" fill="#ffffff" r="5" stroke="#000000" /><circle cx="104.60415649414062" cy="242.6250318029784" fill="#ffffff" r="5" stroke="#000000" /><line stroke="rgb(0,0,0)" x1="533.6145935058594" x2="770.1145935058594" y1="55.0" y2="55.0" /><circle cx="464.2082824707031" cy="320.72616705688466" fill="#ffffff" r="5" stroke="#000000" /><line stroke="rgb(0,0,0)" x1="531.5417175292969" x2="658.0417175292969" y1="211.52084350585938" y2="211.52084350585938" /><circle cx="379.2395935058594" cy="467.6075744628906" fill="#ffffff" r="5" stroke="#000000" /><line stroke="rgb(0,0,0)" x1="796.2494441644292" x2="895.2494441644292" y1="206.91668701171875" y2="206.91668701171875" /><circle cx="658.0417175292969" cy="226.52084350585938" fill="#ffffff" r="5" stroke="#000000" /><line stroke="rgb(0,0,0)" x1="1035.7273609316408" x2="1305.2273609316408" y1="430.04007613476557" y2="430.04007613476557" /><circle cx="102.25" cy="442.4374694824219" fill="#ffffff" r="5" stroke="#000000" /><circle cx="895.2494441644292" cy="281.91668701171875" fill="#ffffff" r="5" stroke="#000000" /></g></svg>